{"title":"Two and a Half Men S09E04 Nl subs DutchReleaseTeam","uid":6737204,"size":183758185,"categoryP":"video","categoryS":"tv_shows","magnet":"?xt=urn:btih:3ee4683d41768c08abec11a0bb7cf33ad7a32e2c&amp;dn=Two+and+a+Half+Men+S09E04+Nl+subs+DutchReleaseTeam&amp;tr=udp%3A%2F%2Ftracker.openbittorrent.com%3A80&amp;tr=udp%3A%2F%2Fopen.demonii.com%3A1337&amp;tr=udp%3A%2F%2Ftracker.coppersurfer.tk%3A6969&amp;tr=udp%3A%2F%2Fexodus.desync.com%3A6969","seeders":1,"leechers":0,"uploader":"Koedje","files":-1,"time":1318371908,"description":"\nPlot:\n\nCharlie Harper leeft in een vrijgezellenparadijs. Hij heeft een strandhuis in Malibu, een vetbetaalde job en een agenda vol afspraakjes. Tot zijn broer Alan bij hem intrekt. Alan is ÃƒÂ©ÃƒÂ©n brok zenuwen, verwikkeld in een (v)echtscheiding en vader van een 10-jarig zoontje, Jake, die hem vergezelt. Sorry, Charlie... Daar gaat je paradijs! Maak kennis met de Harper-mannen - twee meerderjarigen, ÃƒÂ©ÃƒÂ©n kind... en geen enkele volwassene!  \n\n\nVertaald door: Fasso\n\n\nSeizoen 9 Aflevering 4: Nine Magic Fingers\n\n\nWalden goes looking for Mrs. Right while Alan has an opportunity to reconcile with Lyndsey.\n\n\n\n\nINFO;\n\n\nideo\nID                                       : 0\nFormat                                   : MPEG-4 Visual\nFormat profile                           : Advanced Simple@L5\nFormat settings, BVOP                    : 1\nFormat settings, QPel                    : No\nFormat settings, GMC                     : No warppoints\nFormat settings, Matrix                  : Default (H.263)\nMuxing mode                              : Packed bitstream\nCodec ID                                 : XVID\nCodec ID/Hint                            : XviD\nDuration                                 : 20mn 51s\nBit rate                                 : 1 003 Kbps\nWidth                                    : 624 pixels\nHeight                                   : 352 pixels\nDisplay aspect ratio                     : 16:9\nFrame rate                               : 23.976 fps\nColor space                              : YUV\nChroma subsampling                       : 4:2:0\nBit depth                                : 8 bits\nScan type                                : Progressive\nCompression mode                         : Lossy\nBits/(Pixel*Frame)                       : 0.190\nStream size                              : 150 MiB (85%)\nWriting library                          : XviD 64\n\nAudio\nID                                       : 1\nFormat                                   : MPEG Audio\nFormat version                           : Version 1\nFormat profile                           : Layer 3\nCodec ID                                 : 55\nCodec ID/Hint                            : MP3\nDuration                                 : 20mn 51s\nBit rate mode                            : Variable\nBit rate                                 : 160 Kbps\nChannel(s)                               : 2 channels\nSampling rate                            : 48.0 KHz\nCompression mode                         : Lossy\nStream size                              : 23.5 MiB (13%)\nAlignment                                : Aligned on interleaves\nInterleave, duration                     : 24 ms (0.58 video frame)\nInterleave, preload duration             : 475 ms\n\n\n &lt;a href=&quot;\nhttp://www.imdb.com/title/tt0369179/&quot; rel=&quot;nofollow&quot; target=&quot;_NEW&quot;&gt;\nhttp://www.imdb.com/title/tt0369179/&lt;/a&gt;\n\n\n\n\nDutchReleaseteam = Hardcoded Dutch Subs","torrent":{"xt":"urn:btih:3ee4683d41768c08abec11a0bb7cf33ad7a32e2c","amp;dn":"Two+and+a+Half+Men+S09E04+Nl+subs+DutchReleaseTeam","amp;tr":["udp%3A%2F%2Ftracker.openbittorrent.com%3A80","udp%3A%2F%2Fopen.demonii.com%3A1337","udp%3A%2F%2Ftracker.coppersurfer.tk%3A6969","udp%3A%2F%2Fexodus.desync.com%3A6969"],"infoHash":"3ee4683d41768c08abec11a0bb7cf33ad7a32e2c","infoHashBuffer":{"type":"Buffer","data":[62,228,104,61,65,118,140,8,171,236,17,160,187,124,243,58,215,163,46,44]},"announce":[],"urlList":[]}}